<mxfile host="app.diagrams.net" modified="2024-05-13T22:35:23.734Z" agent="Mozilla/5.0 (Windows NT 10.0; Win64; x64) AppleWebKit/537.36 (KHTML, like Gecko) Chrome/124.0.0.0 Safari/537.36 Edg/124.0.0.0" etag="8hIAde5ntlQbHyWN6hCB" version="24.4.0" type="device">
  <diagram name="PÃ¡gina-1" id="ejyUBYjNq1u3te3N1Lgn">
    <mxGraphModel dx="1521" dy="1231" grid="0" gridSize="10" guides="1" tooltips="1" connect="1" arrows="1" fold="1" page="0" pageScale="1" pageWidth="827" pageHeight="1169" math="0" shadow="0">
      <root>
        <mxCell id="0" />
        <mxCell id="1" parent="0" />
        <mxCell id="gJbiYbYGiODxeHFWd503-30" value="" style="group" parent="1" vertex="1" connectable="0">
          <mxGeometry x="-461" y="884" width="839" height="633" as="geometry" />
        </mxCell>
        <mxCell id="gJbiYbYGiODxeHFWd503-29" value="namespace:state" style="verticalAlign=top;align=left;spacingTop=8;spacingLeft=2;spacingRight=12;shape=cube;size=10;direction=south;fontStyle=4;html=1;whiteSpace=wrap;" parent="gJbiYbYGiODxeHFWd503-30" vertex="1">
          <mxGeometry width="839" height="612" as="geometry" />
        </mxCell>
        <mxCell id="gJbiYbYGiODxeHFWd503-20" value="&lt;p style=&quot;margin:0px;margin-top:4px;text-align:center;text-decoration:underline;&quot;&gt;&lt;b&gt;enum:&lt;/b&gt;&lt;span style=&quot;background-color: initial; text-align: left;&quot;&gt;Tool&lt;/span&gt;&lt;/p&gt;&lt;hr size=&quot;1&quot; style=&quot;border-style:solid;&quot;&gt;&lt;p style=&quot;margin:0px;margin-left:8px;&quot;&gt;&amp;nbsp;DRAW&lt;/p&gt;&lt;p style=&quot;margin:0px;margin-left:8px;&quot;&gt;&amp;nbsp;FILL&lt;/p&gt;&lt;p style=&quot;margin:0px;margin-left:8px;&quot;&gt;&amp;nbsp;MAGIC_WAND&lt;/p&gt;" style="verticalAlign=top;align=left;overflow=fill;html=1;whiteSpace=wrap;" parent="gJbiYbYGiODxeHFWd503-30" vertex="1">
          <mxGeometry x="18" y="57.536420722135006" width="104" height="95.49654631083202" as="geometry" />
        </mxCell>
        <mxCell id="gJbiYbYGiODxeHFWd503-35" value="&lt;p style=&quot;margin:0px;margin-top:4px;text-align:center;text-decoration:underline;&quot;&gt;&lt;b&gt;enum:&lt;/b&gt;&lt;span style=&quot;background-color: initial; text-align: left;&quot;&gt;Mode&lt;/span&gt;&lt;/p&gt;&lt;hr size=&quot;1&quot; style=&quot;border-style:solid;&quot;&gt;&lt;p style=&quot;margin:0px;margin-left:8px;&quot;&gt;&amp;nbsp;&lt;span style=&quot;background-color: initial;&quot;&gt;NEW = &#39;n&#39;,&lt;/span&gt;&lt;/p&gt;&lt;p style=&quot;margin:0px;margin-left:8px;&quot;&gt;&amp;nbsp;PREPROCESS = &#39;p&#39;,&lt;/p&gt;&lt;p style=&quot;margin:0px;margin-left:8px;&quot;&gt;&amp;nbsp;DRAW = &#39;d&#39;,&lt;/p&gt;&lt;p style=&quot;margin:0px;margin-left:8px;&quot;&gt;&amp;nbsp;ASSEMBLE = &#39;a&#39;&lt;/p&gt;" style="verticalAlign=top;align=left;overflow=fill;html=1;whiteSpace=wrap;" parent="gJbiYbYGiODxeHFWd503-30" vertex="1">
          <mxGeometry x="139" y="57.53642072213501" width="129" height="95.90397174254318" as="geometry" />
        </mxCell>
        <mxCell id="gJbiYbYGiODxeHFWd503-43" value="&lt;p style=&quot;text-align: center; margin: 4px 0px 0px;&quot;&gt;&lt;b style=&quot;text-decoration-line: underline;&quot;&gt;+ interface:&lt;/b&gt;&lt;span style=&quot;background-color: initial;&quot;&gt;&lt;u&gt;CanvasEditorState&lt;/u&gt;&lt;/span&gt;&lt;/p&gt;&lt;hr size=&quot;1&quot; style=&quot;text-align: center; border-style: solid;&quot;&gt;&lt;p style=&quot;margin:0px;margin-left:8px;&quot;&gt;&amp;nbsp;activeColor: `#string`;&lt;/p&gt;&lt;p style=&quot;margin:0px;margin-left:8px;&quot;&gt;&amp;nbsp;activeTool: Tool;&lt;/p&gt;" style="verticalAlign=top;align=left;overflow=fill;html=1;whiteSpace=wrap;" parent="gJbiYbYGiODxeHFWd503-30" vertex="1">
          <mxGeometry x="18.5" y="258.3673469387755" width="251" height="69.56043956043956" as="geometry" />
        </mxCell>
        <mxCell id="gJbiYbYGiODxeHFWd503-44" value="&lt;p style=&quot;text-align: center; margin: 4px 0px 0px;&quot;&gt;&lt;b style=&quot;text-decoration-line: underline;&quot;&gt;+ interface:&lt;/b&gt;&lt;span style=&quot;background-color: initial; text-align: left;&quot;&gt;&lt;u&gt;InstructionsState&lt;/u&gt;&lt;/span&gt;&lt;/p&gt;&lt;hr size=&quot;1&quot; style=&quot;text-align: center; border-style: solid;&quot;&gt;&lt;p style=&quot;margin:0px;margin-left:8px;&quot;&gt;&lt;span style=&quot;background-color: initial;&quot;&gt;crossedOutColors: Set&amp;lt;HexColor&amp;gt;;&lt;/span&gt;&lt;/p&gt;&lt;p style=&quot;margin:0px;margin-left:8px;&quot;&gt;crossedOutRows: Set&amp;lt;number&amp;gt;;&lt;/p&gt;&lt;p style=&quot;margin:0px;margin-left:8px;&quot;&gt;crossedOutColumns: Set&amp;lt;number&amp;gt;;&lt;/p&gt;" style="verticalAlign=top;align=left;overflow=fill;html=1;whiteSpace=wrap;" parent="gJbiYbYGiODxeHFWd503-30" vertex="1">
          <mxGeometry x="18.5" y="163.96389324960754" width="250" height="83.47252747252747" as="geometry" />
        </mxCell>
        <mxCell id="gJbiYbYGiODxeHFWd503-45" value="&lt;p style=&quot;text-align: center; margin: 4px 0px 0px;&quot;&gt;&lt;b style=&quot;text-decoration-line: underline;&quot;&gt;+ type:&lt;/b&gt;&lt;span style=&quot;background-color: initial; text-align: left;&quot;&gt;&lt;u&gt;PersistableState&lt;/u&gt;&lt;/span&gt;&lt;/p&gt;&lt;hr size=&quot;1&quot; style=&quot;text-align: center; border-style: solid;&quot;&gt;&lt;p style=&quot;margin:0px;margin-left:8px;&quot;&gt;&amp;nbsp;&lt;span style=&quot;background-color: initial;&quot;&gt;| {&amp;nbsp;&lt;/span&gt;&lt;span style=&quot;background-color: initial;&quot;&gt;mode: Mode.NEW;&lt;/span&gt;&lt;span style=&quot;background-color: initial;&quot;&gt;}&lt;/span&gt;&lt;/p&gt;&lt;p style=&quot;margin:0px;margin-left:8px;&quot;&gt;&amp;nbsp;| EditState;&lt;/p&gt;" style="verticalAlign=top;align=left;overflow=fill;html=1;whiteSpace=wrap;" parent="gJbiYbYGiODxeHFWd503-30" vertex="1">
          <mxGeometry x="18.5" y="341.83987441130296" width="251" height="67.57299843014128" as="geometry" />
        </mxCell>
        <mxCell id="gJbiYbYGiODxeHFWd503-46" value="&lt;p style=&quot;text-align: center; margin: 4px 0px 0px;&quot;&gt;&lt;b style=&quot;text-decoration-line: underline;&quot;&gt;+ interface:&lt;/b&gt;&lt;span style=&quot;background-color: initial;&quot;&gt;&lt;u&gt;EditState&lt;/u&gt;&lt;/span&gt;&lt;/p&gt;&lt;hr size=&quot;1&quot; style=&quot;text-align: center; border-style: solid;&quot;&gt;&lt;p style=&quot;margin:0px;margin-left:8px;&quot;&gt;&amp;nbsp; mode: Mode.PREPROCESS | Mode.DRAW | Mode.ASSEMBLE;&lt;/p&gt;&lt;p style=&quot;margin:0px;margin-left:8px;&quot;&gt;&amp;nbsp; imageData: EditableImageData;&lt;/p&gt;&lt;p style=&quot;margin:0px;margin-left:8px;&quot;&gt;&amp;nbsp; canvasEditorState: CanvasEditorState;&lt;/p&gt;&lt;p style=&quot;margin:0px;margin-left:8px;&quot;&gt;&amp;nbsp; instructionsState: InstructionsState;&lt;/p&gt;" style="verticalAlign=top;align=left;overflow=fill;html=1;whiteSpace=wrap;" parent="gJbiYbYGiODxeHFWd503-30" vertex="1">
          <mxGeometry x="284" y="420" width="368" height="90" as="geometry" />
        </mxCell>
        <mxCell id="gJbiYbYGiODxeHFWd503-47" value="&lt;p style=&quot;margin: 4px 0px 0px; text-align: center;&quot;&gt;&lt;b style=&quot;text-decoration-line: underline;&quot;&gt;+ type:HexColor&lt;/b&gt;&lt;/p&gt;&lt;hr size=&quot;1&quot; style=&quot;text-align: center; border-style: solid;&quot;&gt;&lt;p style=&quot;margin:0px;margin-left:8px;&quot;&gt;&amp;nbsp;`#string`&lt;/p&gt;" style="verticalAlign=top;align=left;overflow=fill;html=1;whiteSpace=wrap;" parent="gJbiYbYGiODxeHFWd503-30" vertex="1">
          <mxGeometry x="19" y="522" width="93" height="64" as="geometry" />
        </mxCell>
        <mxCell id="gJbiYbYGiODxeHFWd503-49" value="&lt;p style=&quot;margin:0px;margin-top:4px;text-align:center;&quot;&gt;&lt;span style=&quot;text-align: left;&quot;&gt;root&lt;/span&gt;&lt;br&gt;&lt;/p&gt;&lt;hr size=&quot;1&quot; style=&quot;border-style:solid;&quot;&gt;&lt;p style=&quot;margin:0px;margin-left:4px;&quot;&gt;+ getDefaultDrawState(): Omit&amp;lt;EditState, &#39;imageData&#39;&amp;gt;&lt;/p&gt;&lt;p style=&quot;margin:0px;margin-left:4px;&quot;&gt;+&amp;nbsp;isEnum&amp;lt;T extends string&amp;gt;(value: string | null | undefined, enumType: StringEnum&amp;lt;T&amp;gt;): value is T&lt;/p&gt;&lt;p style=&quot;margin:0px;margin-left:4px;&quot;&gt;+&amp;nbsp;toHex(a: number): string&lt;/p&gt;&lt;p style=&quot;margin:0px;margin-left:4px;&quot;&gt;+&amp;nbsp;rgbToHex(r: number, g: number, b: number): HexColor&lt;/p&gt;&lt;p style=&quot;margin:0px;margin-left:4px;&quot;&gt;+&amp;nbsp;hexToRgb(hex: HexColor): [number, number, number]&lt;/p&gt;&lt;p style=&quot;margin:0px;margin-left:4px;&quot;&gt;+&amp;nbsp;isLightColor(rgb: [number, number, number]): Boolean&lt;/p&gt;&lt;p style=&quot;margin:0px;margin-left:4px;&quot;&gt;+&amp;nbsp;isHexColor(hex: HexColor | string): hex is `#${string}`&lt;/p&gt;&lt;p style=&quot;margin:0px;margin-left:4px;&quot;&gt;&lt;br&gt;&lt;/p&gt;&lt;p style=&quot;margin:0px;margin-left:4px;&quot;&gt;-&amp;nbsp;parseNumberArray(str: string): number[]&lt;/p&gt;&lt;p style=&quot;margin:0px;margin-left:4px;&quot;&gt;+&amp;nbsp;deserializeState(str: string): Promise&amp;lt;DeepPartial&amp;lt;EditState&amp;gt;&amp;gt;&lt;/p&gt;&lt;p style=&quot;margin:0px;margin-left:4px;&quot;&gt;+ serializeState(state: EditState): string&lt;/p&gt;&lt;p style=&quot;margin:0px;margin-left:4px;&quot;&gt;+&amp;nbsp;requireNonNull&amp;lt;T&amp;gt;(value: T | null | undefined, msg?: string): NonNullable&amp;lt;typeof value&amp;gt;&lt;/p&gt;&lt;p style=&quot;margin:0px;margin-left:4px;&quot;&gt;+&amp;nbsp;&lt;span style=&quot;background-color: initial;&quot;&gt;requireTruthy&amp;lt;T&amp;gt;(value: T | null | undefined, msg?: string): TruthyTypesOf&amp;lt;T | null | undefined&amp;gt;&lt;/span&gt;&lt;/p&gt;&lt;div&gt;&lt;span style=&quot;background-color: initial;&quot;&gt;&amp;nbsp;+&amp;nbsp;&lt;/span&gt;&lt;span style=&quot;background-color: initial;&quot;&gt;assert&amp;lt;T&amp;gt;(value: T | null | undefined, msg?: string): asserts value is TruthyTypesOf&amp;lt;T&amp;gt;&lt;/span&gt;&lt;/div&gt;&lt;div&gt;&lt;span style=&quot;background-color: initial;&quot;&gt;&amp;nbsp;+&amp;nbsp;&lt;/span&gt;&lt;span style=&quot;background-color: initial;&quot;&gt;assertTrue(value: boolean | null | undefined, msg?: string): asserts value is true&lt;/span&gt;&lt;/div&gt;" style="verticalAlign=top;align=left;overflow=fill;html=1;whiteSpace=wrap;" parent="gJbiYbYGiODxeHFWd503-30" vertex="1">
          <mxGeometry x="284" y="57.54" width="535" height="254.46" as="geometry" />
        </mxCell>
        <mxCell id="gJbiYbYGiODxeHFWd503-50" value="&lt;p style=&quot;text-align: center; margin: 4px 0px 0px;&quot;&gt;&lt;b style=&quot;text-decoration-line: underline;&quot;&gt;+ interface:&lt;/b&gt;&lt;span style=&quot;background-color: initial; text-align: left;&quot;&gt;&lt;u&gt;StringEnum&amp;lt;T&amp;gt;&amp;nbsp;&lt;/u&gt;&lt;/span&gt;&lt;/p&gt;&lt;hr size=&quot;1&quot; style=&quot;text-align: center; border-style: solid;&quot;&gt;&lt;p style=&quot;margin:0px;margin-left:8px;&quot;&gt;[id: string]: T | string;&lt;/p&gt;" style="verticalAlign=top;align=left;overflow=fill;html=1;whiteSpace=wrap;" parent="gJbiYbYGiODxeHFWd503-30" vertex="1">
          <mxGeometry x="118" y="522" width="153" height="63" as="geometry" />
        </mxCell>
        <mxCell id="gJbiYbYGiODxeHFWd503-62" value="&lt;p style=&quot;text-align: center; margin: 4px 0px 0px;&quot;&gt;&lt;b style=&quot;text-decoration-line: underline;&quot;&gt;+ interface:&lt;/b&gt;&lt;span style=&quot;background-color: initial; text-align: left;&quot;&gt;&lt;u&gt;StateSerializer&lt;/u&gt;&lt;/span&gt;&lt;/p&gt;&lt;hr size=&quot;1&quot; style=&quot;text-align: center; border-style: solid;&quot;&gt;&lt;p style=&quot;margin:0px;margin-left:8px;&quot;&gt;save(state: EditState): Promise&amp;lt;void&amp;gt;;&lt;/p&gt;&lt;p style=&quot;margin:0px;margin-left:8px;&quot;&gt;read(): Promise&amp;lt;DeepPartial&amp;lt;EditState&amp;gt; | null&amp;gt;;&lt;/p&gt;&lt;p style=&quot;margin:0px;margin-left:8px;&quot;&gt;clear(): Promise&amp;lt;void&amp;gt;;&lt;/p&gt;" style="verticalAlign=top;align=left;overflow=fill;html=1;whiteSpace=wrap;" parent="gJbiYbYGiODxeHFWd503-30" vertex="1">
          <mxGeometry x="284" y="327.93" width="266" height="80" as="geometry" />
        </mxCell>
        <mxCell id="gJbiYbYGiODxeHFWd503-63" value="&lt;p style=&quot;text-align: center; margin: 4px 0px 0px;&quot;&gt;&lt;b style=&quot;text-decoration-line: underline;&quot;&gt;+ type:&lt;/b&gt;&lt;span style=&quot;background-color: initial;&quot;&gt;&lt;u&gt;DeepPartial&amp;lt;T&amp;gt;&amp;nbsp;&lt;/u&gt;&lt;/span&gt;&lt;/p&gt;&lt;hr size=&quot;1&quot; style=&quot;text-align: center; border-style: solid;&quot;&gt;&lt;p style=&quot;margin:0px;margin-left:8px;&quot;&gt;T extends object&amp;nbsp;&lt;span style=&quot;background-color: initial;&quot;&gt;? {&lt;/span&gt;&lt;/p&gt;&lt;p style=&quot;margin:0px;margin-left:8px;&quot;&gt;&amp;nbsp; &amp;nbsp; &amp;nbsp; [P in keyof T]?: DeepPartial&amp;lt;T[P]&amp;gt;;&lt;/p&gt;&lt;p style=&quot;margin:0px;margin-left:8px;&quot;&gt;&amp;nbsp; &amp;nbsp; }&lt;/p&gt;&lt;p style=&quot;margin:0px;margin-left:8px;&quot;&gt;&amp;nbsp; : T&lt;/p&gt;" style="verticalAlign=top;align=left;overflow=fill;html=1;whiteSpace=wrap;" parent="gJbiYbYGiODxeHFWd503-30" vertex="1">
          <mxGeometry x="18" y="420" width="253" height="91" as="geometry" />
        </mxCell>
        <mxCell id="gJbiYbYGiODxeHFWd503-31" value="" style="group" parent="1" vertex="1" connectable="0">
          <mxGeometry x="-202" y="-169" width="580" height="987" as="geometry" />
        </mxCell>
        <mxCell id="gJbiYbYGiODxeHFWd503-27" value="namespace:image" style="verticalAlign=top;align=left;spacingTop=8;spacingLeft=2;spacingRight=12;shape=cube;size=10;direction=south;fontStyle=4;html=1;whiteSpace=wrap;" parent="gJbiYbYGiODxeHFWd503-31" vertex="1">
          <mxGeometry width="580" height="987" as="geometry" />
        </mxCell>
        <mxCell id="gJbiYbYGiODxeHFWd503-17" value="&lt;p style=&quot;margin:0px;margin-top:4px;text-align:center;&quot;&gt;+ class:EditableCanvas&lt;br&gt;&lt;/p&gt;&lt;hr size=&quot;1&quot; style=&quot;border-style:solid;&quot;&gt;&lt;p style=&quot;margin:0px;margin-left:4px;&quot;&gt;- ctx: CanvasRenderingContext2D&lt;br&gt;&lt;/p&gt;&lt;p style=&quot;margin:0px;margin-left:4px;&quot;&gt;- readonly&amp;nbsp;&lt;span style=&quot;background-color: initial;&quot;&gt;canvas: HTMLCanvasElement&lt;/span&gt;&lt;/p&gt;&lt;p style=&quot;margin:0px;margin-left:4px;&quot;&gt;&lt;span style=&quot;background-color: initial;&quot;&gt;- readonly&amp;nbsp;&lt;/span&gt;&lt;span style=&quot;background-color: initial;&quot;&gt;&amp;nbsp;editableI&lt;/span&gt;&lt;span style=&quot;background-color: initial;&quot;&gt;mgData: EditableImageData&lt;/span&gt;&lt;/p&gt;&lt;hr size=&quot;1&quot; style=&quot;border-style:solid;&quot;&gt;&amp;nbsp; + constructor(canvas: HTMLCanvasElement,&amp;nbsp;&lt;span style=&quot;background-color: initial;&quot;&gt;editableI&lt;/span&gt;&lt;span style=&quot;background-color: initial;&quot;&gt;mgData:&amp;nbsp;&lt;/span&gt;EditableImageData): void&lt;br&gt;&lt;p style=&quot;margin:0px;margin-left:4px;&quot;&gt;&amp;nbsp;&lt;/p&gt;&lt;p style=&quot;margin:0px;margin-left:4px;&quot;&gt;+ get width(): number&lt;/p&gt;&lt;p style=&quot;margin:0px;margin-left:4px;&quot;&gt;&amp;nbsp;+&amp;nbsp;&lt;span style=&quot;background-color: initial;&quot;&gt;get&lt;/span&gt;&lt;span style=&quot;background-color: initial;&quot;&gt;&amp;nbsp;&lt;/span&gt;&lt;span style=&quot;background-color: initial;&quot;&gt;height(): number&lt;/span&gt;&lt;/p&gt;&lt;p style=&quot;margin:0px;margin-left:4px;&quot;&gt;&amp;nbsp;+&amp;nbsp;&lt;span style=&quot;background-color: initial;&quot;&gt;get&lt;/span&gt;&lt;span style=&quot;background-color: initial;&quot;&gt;&amp;nbsp;&lt;/span&gt;&lt;span style=&quot;background-color: initial;&quot;&gt;counter(): ReadonlyMap&amp;lt;&amp;nbsp;`&lt;/span&gt;&lt;span style=&quot;background-color: initial;&quot;&gt;#string&lt;/span&gt;&lt;span style=&quot;background-color: initial;&quot;&gt;`&lt;/span&gt;&lt;span style=&quot;background-color: initial;&quot;&gt;, number&amp;gt;&lt;/span&gt;&lt;/p&gt;&lt;p style=&quot;margin:0px;margin-left:4px;&quot;&gt;&lt;span style=&quot;background-color: initial;&quot;&gt;&lt;br&gt;&lt;/span&gt;&lt;/p&gt;&lt;p style=&quot;margin:0px;margin-left:4px;&quot;&gt;&amp;nbsp;+ applyMany(operations: Operation[]): void&lt;/p&gt;&lt;p style=&quot;margin:0px;margin-left:4px;&quot;&gt;&amp;nbsp;+ redraw(dirtyArea?: DirtyArea): void&lt;/p&gt;&lt;p style=&quot;margin:0px;margin-left:4px;&quot;&gt;&amp;nbsp;+ pick(x: number, y: number): `&lt;span style=&quot;background-color: initial;&quot;&gt;#string&lt;/span&gt;&lt;span style=&quot;background-color: initial;&quot;&gt;`&lt;/span&gt;&lt;/p&gt;&lt;p style=&quot;margin:0px;margin-left:4px;&quot;&gt;&lt;span style=&quot;background-color: initial;&quot;&gt;&lt;br&gt;&lt;/span&gt;&lt;/p&gt;&lt;p style=&quot;margin:0px;margin-left:4px;&quot;&gt;&lt;span style=&quot;background-color: initial;&quot;&gt;&amp;nbsp;- apply(imageData: EditableImageData, operation: Operation): DirtyArea | null&amp;nbsp;&lt;/span&gt;&lt;/p&gt;&lt;p style=&quot;margin:0px;margin-left:4px;&quot;&gt;&lt;br&gt;&lt;/p&gt;" style="verticalAlign=top;align=left;overflow=fill;html=1;whiteSpace=wrap;" parent="gJbiYbYGiODxeHFWd503-31" vertex="1">
          <mxGeometry x="43" y="54" width="492" height="260" as="geometry" />
        </mxCell>
        <mxCell id="gJbiYbYGiODxeHFWd503-23" value="&lt;p style=&quot;margin:0px;margin-top:4px;text-align:center;&quot;&gt;&lt;span style=&quot;background-color: initial;&quot;&gt;+ class:&lt;/span&gt;&lt;span style=&quot;text-align: left;&quot;&gt;EditableImageData&lt;/span&gt;&lt;br&gt;&lt;/p&gt;&lt;hr size=&quot;1&quot; style=&quot;border-style:solid;&quot;&gt;&lt;p style=&quot;margin:0px;margin-left:4px;&quot;&gt;&lt;span style=&quot;background-color: initial;&quot;&gt;- pixels: number[][]&lt;/span&gt;&lt;/p&gt;&lt;p style=&quot;margin:0px;margin-left:4px;&quot;&gt;- counter: Map&amp;lt;HexColor, number&amp;gt;&lt;br&gt;&lt;/p&gt;&lt;p style=&quot;margin:0px;margin-left:4px;&quot;&gt;- readonly imageData: ImageData&lt;/p&gt;&lt;hr size=&quot;1&quot; style=&quot;border-style:solid;&quot;&gt;&amp;nbsp; + constructor(imageData): void&lt;div&gt;&lt;br&gt;&lt;p style=&quot;margin:0px;margin-left:4px;&quot;&gt;&amp;nbsp;+ get width(): number&lt;/p&gt;&lt;p style=&quot;margin:0px;margin-left:4px;&quot;&gt;&amp;nbsp;+&amp;nbsp;&lt;span style=&quot;background-color: initial;&quot;&gt;get&lt;/span&gt;&lt;span style=&quot;background-color: initial;&quot;&gt;&amp;nbsp;&lt;/span&gt;&lt;span style=&quot;background-color: initial;&quot;&gt;height(): number&lt;/span&gt;&lt;/p&gt;&lt;p style=&quot;margin:0px;margin-left:4px;&quot;&gt;&amp;nbsp;+&amp;nbsp;&lt;span style=&quot;background-color: initial;&quot;&gt;get&lt;/span&gt;&lt;span style=&quot;background-color: initial;&quot;&gt;&amp;nbsp;&lt;/span&gt;&lt;span style=&quot;background-color: initial;&quot;&gt;counter(): ReadonlyMap&amp;lt;&lt;/span&gt;HexColor&lt;span style=&quot;background-color: initial;&quot;&gt;, number&amp;gt;&lt;/span&gt;&lt;/p&gt;&lt;p style=&quot;margin: 0px 0px 0px 4px;&quot;&gt;&amp;nbsp;+&amp;nbsp;&lt;span style=&quot;background-color: initial;&quot;&gt;get&lt;/span&gt;&lt;span style=&quot;background-color: initial;&quot;&gt;&amp;nbsp;&lt;/span&gt;&lt;span style=&quot;background-color: initial;&quot;&gt;pixels():&amp;nbsp;&lt;/span&gt;&lt;span style=&quot;background-color: initial;&quot;&gt;ReadonlyArray&amp;lt;ReadonlyArray&amp;lt;`#string`&amp;gt;&amp;gt;&lt;/span&gt;&lt;/p&gt;&lt;p style=&quot;margin:0px;margin-left:4px;&quot;&gt;&lt;span style=&quot;background-color: initial;&quot;&gt;&lt;br&gt;&lt;/span&gt;&lt;/p&gt;&lt;p style=&quot;margin:0px;margin-left:4px;&quot;&gt;&lt;span style=&quot;background-color: initial;&quot;&gt;&amp;nbsp;+ draw(x: number, y: number, fillColor:&lt;/span&gt;HexColor&lt;span style=&quot;background-color: initial;&quot;&gt;): void&lt;/span&gt;&lt;br&gt;&lt;/p&gt;&lt;p style=&quot;margin:0px;margin-left:4px;&quot;&gt;&amp;nbsp;+ fill(x: number, y: number, fillColor: HexColor): DirtyArea | null&lt;br&gt;&lt;/p&gt;&lt;p style=&quot;margin: 0px 0px 0px 4px;&quot;&gt;&amp;nbsp;+ fillAll(x: number, y: number, fillColor: HexColor): DirtyArea | null&lt;/p&gt;&lt;p style=&quot;margin:0px;margin-left:4px;&quot;&gt;&amp;nbsp;+ pick(x: number, y: number):&amp;nbsp;&lt;span style=&quot;background-color: initial;&quot;&gt;HexColor&lt;/span&gt;&lt;/p&gt;&lt;p style=&quot;margin:0px;margin-left:4px;&quot;&gt;&amp;nbsp;+ replaceColor(originalColor: HexColor, fillColor:&amp;nbsp; HexColor): DirtyArea | null&lt;/p&gt;&lt;p style=&quot;margin:0px;margin-left:4px;&quot;&gt;&amp;nbsp;+ toDataURL(): string&lt;/p&gt;&lt;p style=&quot;margin:0px;margin-left:4px;&quot;&gt;&amp;nbsp;+ toPngBlob(): Promise&amp;lt;Blob&amp;gt;&lt;/p&gt;&lt;p style=&quot;margin:0px;margin-left:4px;&quot;&gt;&amp;nbsp;+&amp;nbsp;toImg(): HTMLImageElement&lt;/p&gt;&lt;p style=&quot;margin:0px;margin-left:4px;&quot;&gt;&lt;br&gt;&lt;/p&gt;&lt;p style=&quot;margin:0px;margin-left:4px;&quot;&gt;&amp;nbsp;-&amp;nbsp;toIndex(x: number, y: number): number&lt;/p&gt;&lt;/div&gt;" style="verticalAlign=top;align=left;overflow=fill;html=1;whiteSpace=wrap;" parent="gJbiYbYGiODxeHFWd503-31" vertex="1">
          <mxGeometry x="43" y="327" width="492" height="347" as="geometry" />
        </mxCell>
        <mxCell id="gJbiYbYGiODxeHFWd503-28" value="&lt;p style=&quot;margin:0px;margin-top:4px;text-align:center;&quot;&gt;&lt;span style=&quot;text-align: left;&quot;&gt;root&lt;/span&gt;&lt;br&gt;&lt;/p&gt;&lt;hr size=&quot;1&quot; style=&quot;border-style:solid;&quot;&gt;&lt;p style=&quot;margin:0px;margin-left:4px;&quot;&gt;- mergeDirtyAreas(&lt;span style=&quot;background-color: initial;&quot;&gt;a: DirtyArea | null,&amp;nbsp;&lt;/span&gt;&lt;span style=&quot;background-color: initial;&quot;&gt;b: DirtyArea | null&lt;/span&gt;&lt;span style=&quot;background-color: initial;&quot;&gt;): DirtyArea | null&amp;nbsp;&lt;/span&gt;&lt;/p&gt;&lt;p style=&quot;margin:0px;margin-left:4px;&quot;&gt;&lt;span style=&quot;background-color: initial;&quot;&gt;- createCanvas({&lt;/span&gt;&lt;span style=&quot;background-color: initial;&quot;&gt;width: number, height: number&lt;/span&gt;&lt;span style=&quot;background-color: initial;&quot;&gt;}):&amp;nbsp;&lt;/span&gt;&lt;span style=&quot;background-color: initial;&quot;&gt;HTMLCanvasElement&lt;/span&gt;&lt;/p&gt;&lt;p style=&quot;margin:0px;margin-left:4px;&quot;&gt;&lt;span style=&quot;background-color: initial;&quot;&gt;+ getContext2D&lt;/span&gt;&lt;span style=&quot;background-color: initial;&quot;&gt;(canvas: HTMLCanvasElement):&amp;nbsp;&lt;/span&gt;&lt;span style=&quot;background-color: initial;&quot;&gt;CanvasRenderingContext2D&lt;/span&gt;&lt;span style=&quot;background-color: initial;&quot;&gt;&lt;br&gt;&lt;/span&gt;&lt;/p&gt;&lt;p style=&quot;margin:0px;margin-left:4px;&quot;&gt;&lt;span style=&quot;background-color: initial;&quot;&gt;+ getImageData(img: HTMLImageElement): ImageData&lt;br&gt;+ colorDistance(a:&amp;nbsp;&lt;/span&gt;HexColor&lt;span style=&quot;background-color: initial;&quot;&gt;, b:&amp;nbsp;&lt;/span&gt;HexColor&lt;span style=&quot;background-color: initial;&quot;&gt;): number&lt;br&gt;&lt;/span&gt;&lt;/p&gt;&lt;p style=&quot;margin:0px;margin-left:4px;&quot;&gt;&lt;span style=&quot;background-color: initial;&quot;&gt;- min&amp;lt;T&amp;gt;(iterable: Iterable&amp;lt;T&amp;gt;, comparator: (a: T) =&amp;gt; number): T | undefined&lt;br&gt;&lt;/span&gt;&lt;/p&gt;&lt;p style=&quot;margin:0px;margin-left:4px;&quot;&gt;&lt;span style=&quot;background-color: initial;&quot;&gt;+ downscale(original: EditableImageData, target: EditableImageData, colorHint: number): void&lt;br&gt;&lt;/span&gt;&lt;/p&gt;" style="verticalAlign=top;align=left;overflow=fill;html=1;whiteSpace=wrap;" parent="gJbiYbYGiODxeHFWd503-31" vertex="1">
          <mxGeometry x="44" y="690" width="492" height="161" as="geometry" />
        </mxCell>
        <mxCell id="gJbiYbYGiODxeHFWd503-19" value="&lt;p style=&quot;margin:0px;margin-top:4px;text-align:center;text-decoration:underline;&quot;&gt;&lt;b&gt;- interface:&lt;/b&gt;&lt;span style=&quot;background-color: initial; text-align: left;&quot;&gt;DirtyArea&lt;/span&gt;&lt;/p&gt;&lt;hr size=&quot;1&quot; style=&quot;border-style:solid;&quot;&gt;&lt;p style=&quot;margin:0px;margin-left:8px;&quot;&gt;top&lt;span style=&quot;background-color: initial;&quot;&gt;: number&lt;/span&gt;&lt;/p&gt;&lt;p style=&quot;margin:0px;margin-left:8px;&quot;&gt;left: number&lt;br&gt;right&lt;span style=&quot;background-color: initial;&quot;&gt;: number&lt;/span&gt;&lt;/p&gt;&lt;p style=&quot;margin:0px;margin-left:8px;&quot;&gt;bottom: number&lt;/p&gt;" style="verticalAlign=top;align=left;overflow=fill;html=1;whiteSpace=wrap;" parent="gJbiYbYGiODxeHFWd503-31" vertex="1">
          <mxGeometry x="44" y="867" width="118" height="95" as="geometry" />
        </mxCell>
        <mxCell id="gJbiYbYGiODxeHFWd503-18" value="&lt;p style=&quot;margin:0px;margin-top:4px;text-align:center;text-decoration:underline;&quot;&gt;&lt;b&gt;+ interface:&lt;/b&gt;&lt;span style=&quot;background-color: initial; text-align: left;&quot;&gt;Operation&lt;/span&gt;&lt;/p&gt;&lt;hr size=&quot;1&quot; style=&quot;border-style:solid;&quot;&gt;&lt;p style=&quot;margin:0px;margin-left:8px;&quot;&gt;tool: Tool&amp;nbsp;&lt;/p&gt;&lt;p style=&quot;margin:0px;margin-left:8px;&quot;&gt;&lt;span style=&quot;background-color: initial;&quot;&gt;color: HexColor;&lt;/span&gt;&lt;/p&gt;&lt;p style=&quot;margin:0px;margin-left:8px;&quot;&gt;x: number;&lt;/p&gt;&lt;p style=&quot;margin:0px;margin-left:8px;&quot;&gt;y: number;&lt;/p&gt;" style="verticalAlign=top;align=left;overflow=fill;html=1;whiteSpace=wrap;" parent="gJbiYbYGiODxeHFWd503-31" vertex="1">
          <mxGeometry x="175" y="867" width="127" height="95" as="geometry" />
        </mxCell>
        <mxCell id="gJbiYbYGiODxeHFWd503-48" style="edgeStyle=none;curved=1;rounded=0;orthogonalLoop=1;jettySize=auto;html=1;fontSize=12;startSize=8;endSize=8;entryX=0;entryY=0;entryDx=987;entryDy=295;entryPerimeter=0;" parent="1" target="gJbiYbYGiODxeHFWd503-27" edge="1">
          <mxGeometry relative="1" as="geometry">
            <mxPoint x="83" y="883" as="sourcePoint" />
            <mxPoint x="102" y="833" as="targetPoint" />
          </mxGeometry>
        </mxCell>
        <mxCell id="qOLwft03yUnZW-UZaoGM-6" value="" style="group" vertex="1" connectable="0" parent="1">
          <mxGeometry x="401" y="-171" width="540" height="205" as="geometry" />
        </mxCell>
        <mxCell id="qOLwft03yUnZW-UZaoGM-4" value="" style="group" vertex="1" connectable="0" parent="qOLwft03yUnZW-UZaoGM-6">
          <mxGeometry width="540" height="205" as="geometry" />
        </mxCell>
        <mxCell id="qOLwft03yUnZW-UZaoGM-2" value="io" style="verticalAlign=top;align=left;spacingTop=8;spacingLeft=2;spacingRight=12;shape=cube;size=10;direction=south;fontStyle=4;html=1;whiteSpace=wrap;" vertex="1" parent="qOLwft03yUnZW-UZaoGM-4">
          <mxGeometry width="540" height="205" as="geometry" />
        </mxCell>
        <mxCell id="qOLwft03yUnZW-UZaoGM-5" value="&lt;p style=&quot;margin:0px;margin-top:4px;text-align:center;text-decoration:underline;&quot;&gt;&lt;b&gt;root&lt;/b&gt;&lt;/p&gt;&lt;hr size=&quot;1&quot; style=&quot;border-style:solid;&quot;&gt;&lt;p style=&quot;margin:0px;margin-left:8px;&quot;&gt;+ showFileDialog(callback: (file: File) =&amp;gt; void): void&lt;br&gt;&lt;/p&gt;&lt;p style=&quot;margin:0px;margin-left:8px;&quot;&gt;+ async decodeBase64(base64Data: string): Promise&amp;lt;File&amp;gt;&lt;/p&gt;&lt;p style=&quot;margin:0px;margin-left:8px;&quot;&gt;+&amp;nbsp;loadImageFile(imageFile: File): Promise&amp;lt;HTMLImageElement&amp;gt;&lt;/p&gt;&lt;p style=&quot;margin:0px;margin-left:8px;&quot;&gt;+&amp;nbsp;waitForImage(img: HTMLImageElement): Promise&amp;lt;HTMLImageElement&amp;gt;&lt;/p&gt;&lt;p style=&quot;margin:0px;margin-left:8px;&quot;&gt;+&amp;nbsp;downloadFile(file: File): void&lt;/p&gt;&lt;p style=&quot;margin:0px;margin-left:8px;&quot;&gt;-&amp;nbsp;STORAGE_KEY: string&lt;/p&gt;" style="verticalAlign=top;align=left;overflow=fill;html=1;whiteSpace=wrap;" vertex="1" parent="qOLwft03yUnZW-UZaoGM-4">
          <mxGeometry x="19.6875" y="37.5" width="500.625" height="130" as="geometry" />
        </mxCell>
        <mxCell id="qOLwft03yUnZW-UZaoGM-7" value="" style="group" vertex="1" connectable="0" parent="1">
          <mxGeometry x="401" y="72" width="539" height="400" as="geometry" />
        </mxCell>
        <mxCell id="qOLwft03yUnZW-UZaoGM-8" value="" style="group" vertex="1" connectable="0" parent="qOLwft03yUnZW-UZaoGM-7">
          <mxGeometry width="539" height="400" as="geometry" />
        </mxCell>
        <mxCell id="qOLwft03yUnZW-UZaoGM-9" value="app" style="verticalAlign=top;align=left;spacingTop=8;spacingLeft=2;spacingRight=12;shape=cube;size=10;direction=south;fontStyle=4;html=1;whiteSpace=wrap;" vertex="1" parent="qOLwft03yUnZW-UZaoGM-8">
          <mxGeometry width="539" height="400" as="geometry" />
        </mxCell>
        <mxCell id="qOLwft03yUnZW-UZaoGM-10" value="&lt;p style=&quot;margin:0px;margin-top:4px;text-align:center;text-decoration:underline;&quot;&gt;&lt;b&gt;root&lt;/b&gt;&lt;/p&gt;&lt;hr size=&quot;1&quot; style=&quot;border-style:solid;&quot;&gt;&lt;p style=&quot;margin:0px;margin-left:8px;&quot;&gt;-&amp;nbsp;&lt;span style=&quot;background-color: initial;&quot;&gt;hasImageData(state: PersistableState): state is EditState&lt;/span&gt;&lt;br&gt;&lt;/p&gt;&lt;div&gt;&lt;span style=&quot;background-color: initial;&quot;&gt;&lt;br&gt;&lt;/span&gt;&lt;/div&gt;" style="verticalAlign=top;align=left;overflow=fill;html=1;whiteSpace=wrap;" vertex="1" parent="qOLwft03yUnZW-UZaoGM-8">
          <mxGeometry x="15.42" y="40" width="492.32" height="54.75" as="geometry" />
        </mxCell>
        <mxCell id="qOLwft03yUnZW-UZaoGM-12" value="&lt;p style=&quot;margin:0px;margin-top:4px;text-align:center;&quot;&gt;&lt;span style=&quot;background-color: initial;&quot;&gt;+ class:&lt;/span&gt;&lt;span style=&quot;text-align: left;&quot;&gt;EditableImageData&lt;/span&gt;&lt;br&gt;&lt;/p&gt;&lt;hr size=&quot;1&quot; style=&quot;border-style:solid;&quot;&gt;&lt;p style=&quot;margin:0px;margin-left:4px;&quot;&gt;&amp;nbsp; &amp;nbsp; - readonly dragDropService: DragDropService,&lt;/p&gt;&lt;p style=&quot;margin:0px;margin-left:4px;&quot;&gt;&amp;nbsp; &amp;nbsp; -&amp;nbsp;readonly clipboardService: ClipboardService,&lt;/p&gt;&lt;p style=&quot;margin:0px;margin-left:4px;&quot;&gt;&amp;nbsp; &amp;nbsp; -&amp;nbsp;readonly storageService: StorageService,&lt;/p&gt;&lt;p style=&quot;margin:0px;margin-left:4px;&quot;&gt;&amp;nbsp; &amp;nbsp; -&amp;nbsp;readonly urlStateSerializer: UrlStateSerializer&lt;/p&gt;&lt;hr size=&quot;1&quot; style=&quot;border-style:solid;&quot;&gt;&amp;nbsp; + constructor(dragDropService, clipboardService, storageService, urlStateSerializer): void&lt;div&gt;&lt;br&gt;&lt;/div&gt;&lt;div&gt;&lt;p style=&quot;margin: 0px 0px 0px 4px;&quot;&gt;+ get isMobile: Boolean&lt;/p&gt;&lt;p style=&quot;margin: 0px 0px 0px 4px;&quot;&gt;+ get&amp;nbsp;&lt;span style=&quot;background-color: initial;&quot;&gt;hasImage: Boolean&lt;/span&gt;&lt;/p&gt;&lt;p style=&quot;margin: 0px 0px 0px 4px;&quot;&gt;&lt;span style=&quot;background-color: initial;&quot;&gt;&lt;br&gt;&lt;/span&gt;&lt;/p&gt;&lt;p style=&quot;margin:0px;margin-left:4px;&quot;&gt;+ async openImageFile(file: File): Promise&amp;lt;void&amp;gt;&lt;/p&gt;&lt;p style=&quot;margin:0px;margin-left:4px;&quot;&gt;+ async&amp;nbsp;ngAfterViewInit(): Promise&amp;lt;void&amp;gt;&lt;/p&gt;&lt;p style=&quot;margin:0px;margin-left:4px;&quot;&gt;&lt;span style=&quot;background-color: initial;&quot;&gt;+&amp;nbsp;&lt;/span&gt;&lt;span style=&quot;background-color: initial;&quot;&gt;newFile(): void&lt;/span&gt;&lt;/p&gt;&lt;p style=&quot;margin:0px;margin-left:4px;&quot;&gt;&lt;span style=&quot;background-color: initial;&quot;&gt;+&amp;nbsp;&lt;/span&gt;&lt;span style=&quot;background-color: initial;&quot;&gt;openDrawMode(image: HTMLImageElement | EditableImageData): void&lt;/span&gt;&lt;/p&gt;&lt;p style=&quot;margin:0px;margin-left:4px;&quot;&gt;&lt;span style=&quot;background-color: initial;&quot;&gt;+&amp;nbsp;&lt;/span&gt;&lt;span style=&quot;background-color: initial;&quot;&gt;uploadFile(): void&lt;/span&gt;&lt;/p&gt;&lt;p style=&quot;margin:0px;margin-left:4px;&quot;&gt;&lt;span style=&quot;background-color: initial;&quot;&gt;+&amp;nbsp;&lt;/span&gt;&lt;span style=&quot;background-color: initial;&quot;&gt;downloadPng(): Promise&amp;lt;void&amp;gt;&lt;/span&gt;&lt;/p&gt;&lt;/div&gt;&lt;div&gt;&lt;span style=&quot;background-color: initial;&quot;&gt;&amp;nbsp;+&amp;nbsp;&lt;/span&gt;&lt;span style=&quot;background-color: initial;&quot;&gt;copyImage(): Promise&amp;lt;void&amp;gt;&lt;/span&gt;&lt;/div&gt;" style="verticalAlign=top;align=left;overflow=fill;html=1;whiteSpace=wrap;" vertex="1" parent="qOLwft03yUnZW-UZaoGM-8">
          <mxGeometry x="15.42" y="105" width="493.58" height="284" as="geometry" />
        </mxCell>
        <mxCell id="qOLwft03yUnZW-UZaoGM-17" value="" style="group" vertex="1" connectable="0" parent="1">
          <mxGeometry x="401" y="495" width="543" height="362" as="geometry" />
        </mxCell>
        <mxCell id="qOLwft03yUnZW-UZaoGM-14" value="canvas-editor" style="verticalAlign=top;align=left;spacingTop=8;spacingLeft=2;spacingRight=12;shape=cube;size=10;direction=south;fontStyle=4;html=1;whiteSpace=wrap;" vertex="1" parent="qOLwft03yUnZW-UZaoGM-17">
          <mxGeometry width="543" height="362" as="geometry" />
        </mxCell>
        <mxCell id="qOLwft03yUnZW-UZaoGM-15" value="&lt;p style=&quot;margin: 4px 0px 0px; text-align: center;&quot;&gt;&lt;span style=&quot;background-color: initial;&quot;&gt;+ class:&lt;/span&gt;&lt;span style=&quot;background-color: initial; text-align: left;&quot;&gt;CanvasEditorComponent&lt;/span&gt;&lt;/p&gt;&lt;hr size=&quot;1&quot; style=&quot;border-style:solid;&quot;&gt;&lt;p style=&quot;margin:0px;margin-left:4px;&quot;&gt;- readonly Tool: Tool&lt;/p&gt;&lt;p style=&quot;margin:0px;margin-left:4px;&quot;&gt;- editableCanvas: EditableCanvas&lt;/p&gt;&lt;p style=&quot;margin:0px;margin-left:4px;&quot;&gt;&lt;br&gt;&lt;/p&gt;&amp;nbsp; + constructor(dragDropService, clipboardService, storageService, urlStateSerializer): void&lt;div&gt;&lt;br&gt;&lt;/div&gt;&lt;div&gt;&lt;p style=&quot;margin: 0px 0px 0px 4px;&quot;&gt;+ get isMobile: Boolean&lt;/p&gt;&lt;p style=&quot;margin: 0px 0px 0px 4px;&quot;&gt;+ get&amp;nbsp;&lt;span style=&quot;background-color: initial;&quot;&gt;hasImage: Boolean&lt;/span&gt;&lt;/p&gt;&lt;p style=&quot;margin: 0px 0px 0px 4px;&quot;&gt;&lt;span style=&quot;background-color: initial;&quot;&gt;&lt;br&gt;&lt;/span&gt;&lt;/p&gt;&lt;p style=&quot;margin:0px;margin-left:4px;&quot;&gt;+ async openImageFile(file: File): Promise&amp;lt;void&amp;gt;&lt;/p&gt;&lt;p style=&quot;margin:0px;margin-left:4px;&quot;&gt;+ async&amp;nbsp;ngAfterViewInit(): Promise&amp;lt;void&amp;gt;&lt;/p&gt;&lt;p style=&quot;margin:0px;margin-left:4px;&quot;&gt;&lt;span style=&quot;background-color: initial;&quot;&gt;+&amp;nbsp;&lt;/span&gt;&lt;span style=&quot;background-color: initial;&quot;&gt;newFile(): void&lt;/span&gt;&lt;/p&gt;&lt;p style=&quot;margin:0px;margin-left:4px;&quot;&gt;&lt;span style=&quot;background-color: initial;&quot;&gt;+&amp;nbsp;&lt;/span&gt;&lt;span style=&quot;background-color: initial;&quot;&gt;openDrawMode(image: HTMLImageElement | EditableImageData): void&lt;/span&gt;&lt;/p&gt;&lt;p style=&quot;margin:0px;margin-left:4px;&quot;&gt;&lt;span style=&quot;background-color: initial;&quot;&gt;+&amp;nbsp;&lt;/span&gt;&lt;span style=&quot;background-color: initial;&quot;&gt;uploadFile(): void&lt;/span&gt;&lt;/p&gt;&lt;p style=&quot;margin:0px;margin-left:4px;&quot;&gt;&lt;span style=&quot;background-color: initial;&quot;&gt;+&amp;nbsp;&lt;/span&gt;&lt;span style=&quot;background-color: initial;&quot;&gt;downloadPng(): Promise&amp;lt;void&amp;gt;&lt;/span&gt;&lt;/p&gt;&lt;/div&gt;&lt;div&gt;&lt;span style=&quot;background-color: initial;&quot;&gt;&amp;nbsp;+&amp;nbsp;&lt;/span&gt;&lt;span style=&quot;background-color: initial;&quot;&gt;copyImage(): Promise&amp;lt;void&amp;gt;&lt;/span&gt;&lt;/div&gt;" style="verticalAlign=top;align=left;overflow=fill;html=1;whiteSpace=wrap;" vertex="1" parent="qOLwft03yUnZW-UZaoGM-17">
          <mxGeometry x="16" y="35" width="493.58" height="284" as="geometry" />
        </mxCell>
      </root>
    </mxGraphModel>
  </diagram>
</mxfile>
